Coordinates
version=1
nRows=26
nColumns=22
inDegrees=yes

Units are S.I. units (second, meters, Newtons, ...)
Angles are in degrees.

endheader
time	r_z	sternoclavicular_r2	sternoclavicular_r3	unrotscap_r3	unrotscap_r2	acromioclavicular_r2	acromioclavicular_r3	acromioclavicular_r1	unrothum_r1	unrothum_r3	unrothum_r2	elv_angle	shoulder_elv	shoulder1_r2	shoulder_rot	elbow_flexion	pro_sup	deviation	flexion	wrist_hand_r1	wrist_hand_r3
      0.00000000	     10.00000028	     -1.27884321	      0.54165762	     -0.54165762	      1.27884321	     -0.25893974	      2.09265986	      0.94063621	     -0.94063621	     -2.09265986	      0.25893974	      4.88931977	      5.28446422	     -4.88931977	      9.85813294	     17.52790350	    -90.00000000	      0.00000000	      0.00000000	      0.00000000	      0.00000000
      0.03333333	     10.00000028	     -1.21604157	      0.51505782	     -0.51505782	      1.21604157	     -0.24622368	      1.98989319	      0.89444329	     -0.89444329	     -1.98989319	      0.24622368	     -5.07446843	      5.02495392	      5.07446843	      8.30333471	     20.65752444	    -90.00000000	      0.00000000	      0.00000000	     -0.00000000	     -0.00000000
      0.06666667	     10.00000028	     -1.26811977	      0.53711568	     -0.53711568	      1.26811977	     -0.25676846	      2.07511235	      0.93274872	     -0.93274872	     -2.07511235	      0.25676846	    -18.85672628	      5.24015258	     18.85672628	      7.49272363	     24.20371392	    -90.00000000	      0.00000000	      0.00000000	      0.00000000	      0.00000000
      0.10000000	     10.00000028	     -1.32545588	      0.56140055	     -0.56140055	      1.32545588	     -0.26837785	      2.16893541	      0.97492154	     -0.97492154	     -2.16893541	      0.26837785	    -30.09957534	      5.47707814	     30.09957534	      6.36993954	     27.66094518	    -90.00000000	     -0.00000000	      0.00000000	      0.00000000	      0.00000000
      0.13333333	     10.00000028	     -1.61053659	      0.68214729	     -0.68214729	      1.61053659	     -0.32610090	      2.63543276	      1.18460889	     -1.18460889	     -2.63543276	      0.32610090	    -42.66601047	      6.65509498	     42.66601047	      6.61079293	     32.40749274	    -90.00000000	      0.00000000	      0.00000000	      0.00000000	     -0.00000000
      0.16666667	     10.00000028	     -2.04390719	      0.86570262	     -0.86570262	      2.04390719	     -0.41384963	      3.34458713	      1.50336890	     -1.50336890	     -3.34458713	      0.41384963	    -44.62129511	      8.44587854	     44.62129511	      9.67486620	     36.01174755	    -90.00000000	      0.00000000	      0.00000000	      0.00000000	      0.00000000
      0.20000000	     10.00000028	     -2.03977001	      0.86395031	     -0.86395031	      2.03977001	     -0.41301194	      3.33781718	      1.50032585	     -1.50032585	     -3.33781718	      0.41301194	    -58.70198261	      8.42878281	     58.70198261	      5.15403843	     41.16532184	    -90.00000000	      0.00000000	      0.00000000	      0.00000000	      0.00000000
      0.23333333	     10.00000028	     -2.49899979	      1.05845837	     -1.05845837	      2.49899979	     -0.50599662	      4.08928673	      1.83810624	     -1.83810624	     -4.08928673	      0.50599662	    -58.69075408	     10.32642228	     58.69075408	      7.44199705	     45.52385268	    -90.00000000	     -0.00000000	     -0.00000000	     -0.00000000	      0.00000000
      0.26666667	     10.00000028	     -2.68449263	      1.13702438	     -1.13702438	      2.68449263	     -0.54355515	      4.39282153	      1.97454304	     -1.97454304	     -4.39282153	      0.54355515	    -66.03757257	     11.09291988	     66.03757257	      5.57048426	     49.98307892	    -90.00000000	      0.00000000	      0.00000000	      0.00000000	      0.00000000
      0.30000000	     10.00000028	     -3.09803240	      1.31218030	     -1.31218030	      3.09803240	     -0.62728854	      5.06952534	      2.27871675	     -2.27871675	     -5.06952534	      0.62728854	    -65.37243354	     12.80175808	     65.37243354	      7.17183864	     54.44045905	    -90.00000000	      0.00000000	      0.00000000	      0.00000000	     -0.00000000
      0.33333333	     10.00000028	     -3.31620555	      1.40458815	     -1.40458815	      3.31620555	     -0.67146417	      5.42653721	      2.43919113	     -2.43919113	     -5.42653721	      0.67146417	    -69.67471128	     13.70329800	     69.67471128	      6.16043678	     58.79625240	    -90.00000011	      0.00000000	     -0.00000000	      0.00000000	     -0.00000000
      0.36666667	     10.00000028	     -3.65295061	      1.54721747	     -1.54721747	      3.65295061	     -0.73964819	      5.97757651	      2.68687950	     -2.68687950	     -5.97757651	      0.73964819	    -68.91279275	     15.09480340	     68.91279275	      7.41751261	     63.14861860	    -90.00000000	      0.00000000	      0.00000000	      0.00000000	      0.00000000
      0.40000000	     10.00000028	     -3.79778048	      1.60856056	     -1.60856056	      3.79778048	     -0.76897329	      6.21457167	      2.79340720	     -2.79340720	     -6.21457167	      0.76897329	    -75.93699125	     15.69327258	     75.93699125	      5.23039939	     71.02801013	    -90.00000000	      0.00000000	      0.00000000	      0.00000000	      0.00000000
      0.43333333	     10.00000028	     -4.07061717	      1.72412131	     -1.72412131	      4.07061717	     -0.82421717	      6.66103327	      2.99408861	     -2.99408861	     -6.66103327	      0.82421717	    -78.30489193	     16.82069439	     78.30489193	      4.92875171	     75.50613303	    -90.00000000	     -0.00000000	     -0.00000000	     -0.00000000	      0.00000000
      0.46666667	     10.00000028	     -4.20590802	      1.78142413	     -1.78142413	      4.20590802	     -0.85161082	      6.88241908	      3.09360001	     -3.09360001	     -6.88241908	      0.85161082	    -77.07473635	     17.37974626	     77.07473635	      5.58454678	     78.41016850	    -90.00000000	      0.00000000	      0.00000000	      0.00000000	      0.00000000
      0.50000000	     10.00000028	     -4.33929386	      1.83792008	     -1.83792008	      4.33929386	     -0.87861874	      7.10068759	      3.19171020	     -3.19171020	     -7.10068759	      0.87861874	    -79.61297240	     17.93092619	     79.61297240	      4.91541771	     82.12934280	    -90.00000000	      0.00000000	      0.00000000	      0.00000000	     -0.00000000
      0.53333333	     10.00000028	     -4.50441345	      1.90785694	     -1.90785694	      4.50441345	     -0.91205210	      7.37088423	      3.31316174	     -3.31316174	     -7.37088423	      0.91205210	    -80.63280336	     18.61323702	     80.63280336	      4.85246597	     86.08377846	    -89.99999999	     -0.00000000	     -0.00000000	     -0.00000000	      0.00000000
      0.56666667	     10.00000028	     -4.61002110	      1.95258736	     -1.95258736	      4.61002110	     -0.93343550	      7.54369736	      3.39084004	     -3.39084004	     -7.54369736	      0.93343550	    -82.21632890	     19.04963129	     82.21632890	      4.51530953	     89.64979121	    -90.00000000	      0.00000000	      0.00000000	      0.00000000	      0.00000000
      0.60000000	     10.00000028	     -4.76228061	      2.01707730	     -2.01707730	      4.76228061	     -0.96426495	      7.79285015	      3.50283251	     -3.50283251	     -7.79285015	      0.96426495	    -80.67766545	     19.67880139	     80.67766545	      5.20420723	     92.92627588	    -89.99999989	     -0.00000000	      0.00000000	     -0.00000000	      0.00000000
      0.63333333	     10.00000028	     -4.85167237	      2.05493943	     -2.05493943	      4.85167237	     -0.98236496	      7.93912808	      3.56858343	     -3.56858343	     -7.93912808	      0.98236496	    -82.33457306	     20.04818798	     82.33457306	      4.51755863	     96.28421716	    -90.00000000	      0.00000000	      0.00000000	      0.00000000	      0.00000000
      0.66666667	     10.00000028	     -4.94317366	      2.09369506	     -2.09369506	      4.94317366	     -1.00089211	      8.08885799	      3.63588600	     -3.63588600	     -8.08885799	      1.00089211	    -81.11447829	     20.42629164	     81.11447829	      4.71171095	     98.94705000	    -90.00000000	      0.00000000	      0.00000000	      0.00000000	     -0.00000000
      0.70000000	     10.00000028	     -5.18830125	      2.19751954	     -2.19751954	      5.18830125	     -1.05052547	      8.48997728	      3.81618636	     -3.81618636	     -8.48997728	      1.05052547	    -62.03568472	     21.43921332	     62.03568472	     10.77086662	    100.43258857	    -90.00000000	      0.00000000	      0.00000000	      0.00000000	      0.00000000
      0.73333333	     10.00000028	     -5.14828401	      2.18057012	     -2.18057012	      5.14828401	     -1.04242279	      8.42449429	      3.78675220	     -3.78675220	     -8.42449429	      1.04242279	    -64.15977931	     21.27385318	     64.15977931	      9.36144806	    102.72813963	    -90.00000000	      0.00000000	      0.00000000	      0.00000000	      0.00000000
      0.76666667	     10.00000028	     -5.05530602	      2.14118903	     -2.14118903	      5.05530602	     -1.02359664	      8.27234795	      3.71836347	     -3.71836347	     -8.27234795	      1.02359664	    -66.22872085	     20.88964746	     66.22872085	      7.84933586	    104.67245580	    -90.00000000	      0.00000000	     -0.00000000	     -0.00000000	      0.00000000
      0.80000000	     10.00000028	     -4.79647278	      2.03155949	     -2.03155949	      4.79647278	     -0.97118817	      7.84880117	      3.52798211	     -3.52798211	     -7.84880117	      0.97118817	    -86.56308146	     19.82009104	     86.56308146	      1.18165406	    106.99594176	    -90.00000000	      0.00000000	      0.00000000	      0.00000000	      0.00000000
      0.83333333	     10.00000028	     -4.73676364	      2.00626952	     -2.00626952	      4.73676364	     -0.95909828	      7.75109497	      3.48406384	     -3.48406384	     -7.75109497	      0.95909828	    -85.93593481	     19.57335961	     85.93593481	      1.26168038	    108.12614237	    -90.00000000	      0.00000000	      0.00000000	      0.00000000	      0.00000000
